<svg width="18" height="18" viewBox="0 0 18 18" fill="none" xmlns="http://www.w3.org/2000/svg">
<path d="M16.2218 12.2681L13.6818 11.9781C13.0718 11.9081 12.4718 12.1181 12.0418 12.5481L10.2018 14.3881C7.3718 12.9481 5.0518 10.6381 3.6118 7.79807L5.4618 5.94807C5.8918 5.51807 6.1018 4.91807 6.0318 4.30807L5.7418 1.78807C5.6218 0.778066 4.7718 0.0180664 3.7518 0.0180664H2.0218C0.891801 0.0180664 -0.0481991 0.958066 0.0218009 2.08807C0.551801 10.6281 7.3818 17.4481 15.9118 17.9781C17.0418 18.0481 17.9818 17.1081 17.9818 15.9781V14.2481C17.9918 13.2381 17.2318 12.3881 16.2218 12.2681Z" fill="#F6D391"/>
</svg>
