<svg width="19" height="19" viewBox="0 0 19 19" fill="none" xmlns="http://www.w3.org/2000/svg">
<g clip-path="url(#clip0_1_196)">
<path d="M18.981 5.58605C18.9365 4.57651 18.7733 3.88246 18.5394 3.28105C18.2981 2.64267 17.927 2.07114 17.4407 1.59601C16.9656 1.1135 16.3903 0.738563 15.7593 0.501074C15.1544 0.267211 14.464 0.103956 13.4544 0.0594446C12.4374 0.011164 12.1145 0 9.53486 0C6.95526 0 6.63238 0.011164 5.61907 0.0556749C4.60952 0.100186 3.91547 0.263586 3.31421 0.497305C2.67569 0.738563 2.10415 1.10973 1.62903 1.59601C1.14652 2.07114 0.771727 2.64644 0.534094 3.27743C0.30023 3.88246 0.136975 4.57274 0.0924645 5.58228C0.044184 6.59937 0.03302 6.92225 0.03302 9.50186C0.03302 12.0815 0.044184 12.4043 0.0886949 13.4177C0.133206 14.4272 0.296606 15.1213 0.530469 15.7227C0.771727 16.361 1.14652 16.9326 1.62903 17.4077C2.10415 17.8902 2.67946 18.2652 3.31044 18.5026C3.91547 18.7365 4.60575 18.8998 5.61544 18.9443C6.62861 18.9889 6.95164 18.9999 9.53124 18.9999C12.1108 18.9999 12.4337 18.9889 13.447 18.9443C14.4566 18.8998 15.1506 18.7365 15.7519 18.5026C17.0288 18.009 18.0383 16.9994 18.532 15.7227C18.7657 15.1176 18.9291 14.4272 18.9736 13.4177C19.0182 12.4043 19.0293 12.0815 19.0293 9.50186C19.0293 6.92225 19.0255 6.59937 18.981 5.58605ZM17.27 13.3434C17.2292 14.2713 17.0733 14.7724 16.9434 15.1065C16.6241 15.9342 15.9672 16.5911 15.1395 16.9104C14.8054 17.0403 14.3007 17.1962 13.3764 17.2369C12.3743 17.2816 12.0737 17.2926 9.53863 17.2926C7.00354 17.2926 6.69922 17.2816 5.70069 17.2369C4.77278 17.1962 4.2717 17.0403 3.93766 16.9104C3.52575 16.7582 3.15081 16.5169 2.84649 16.2014C2.53099 15.8933 2.28974 15.5221 2.1375 15.1102C2.00759 14.7762 1.85173 14.2713 1.81099 13.3472C1.76634 12.345 1.75532 12.0443 1.75532 9.50925C1.75532 6.97416 1.76634 6.66983 1.81099 5.67145C1.85173 4.74353 2.00759 4.24246 2.1375 3.90841C2.28974 3.49636 2.53099 3.12157 2.85026 2.81709C3.15821 2.5016 3.52937 2.26034 3.94142 2.10825C4.27547 1.97835 4.78032 1.82248 5.70446 1.7816C6.70661 1.73709 7.00731 1.72592 9.54226 1.72592C12.0811 1.72592 12.3817 1.73709 13.3802 1.7816C14.3081 1.82248 14.8092 1.97835 15.1432 2.10825C15.5551 2.26034 15.9301 2.5016 16.2344 2.81709C16.5499 3.12519 16.7912 3.49636 16.9434 3.90841C17.0733 4.24246 17.2292 4.74716 17.27 5.67145C17.3146 6.6736 17.3257 6.97416 17.3257 9.50925C17.3257 12.0443 17.3146 12.3413 17.27 13.3434Z" fill="#D9B872"/>
<path d="M9.53498 4.62109C6.8404 4.62109 4.65414 6.8072 4.65414 9.50193C4.65414 12.1967 6.8404 14.3828 9.53498 14.3828C12.2297 14.3828 14.4158 12.1967 14.4158 9.50193C14.4158 6.8072 12.2297 4.62109 9.53498 4.62109ZM9.53498 12.668C7.78687 12.668 6.3689 11.2502 6.3689 9.50193C6.3689 7.75368 7.78687 6.33585 9.53498 6.33585C11.2832 6.33585 12.7011 7.75368 12.7011 9.50193C12.7011 11.2502 11.2832 12.668 9.53498 12.668Z" fill="#D9B872"/>
<path d="M15.7478 4.42803C15.7478 5.05727 15.2376 5.56748 14.6082 5.56748C13.979 5.56748 13.4688 5.05727 13.4688 4.42803C13.4688 3.79864 13.979 3.28857 14.6082 3.28857C15.2376 3.28857 15.7478 3.79864 15.7478 4.42803Z" fill="#D9B872"/>
</g>
<defs>
<clipPath id="clip0_1_196">
<rect width="19" height="19" fill="white"/>
</clipPath>
</defs>
</svg>
