<svg width="21" height="20" viewBox="0 0 21 20" fill="none" xmlns="http://www.w3.org/2000/svg">
<g clip-path="url(#clip0_1_188)">
<path d="M21 3.79875C20.2191 4.125 19.3869 4.34125 18.5194 4.44625C19.4119 3.93875 20.0931 3.14125 20.4133 2.18C19.5812 2.6525 18.6624 2.98625 17.6833 3.1725C16.8932 2.37125 15.7671 1.875 14.5386 1.875C12.1551 1.875 10.2362 3.7175 10.2362 5.97625C10.2362 6.30125 10.2651 6.61375 10.3359 6.91125C6.75675 6.745 3.58969 5.11125 1.46212 2.6225C1.09069 3.23625 0.872813 3.93875 0.872813 4.695C0.872813 6.115 1.64062 7.37375 2.78513 8.1025C2.09344 8.09 1.41488 7.89875 0.84 7.5975C0.84 7.61 0.84 7.62625 0.84 7.6425C0.84 9.635 2.33231 11.29 4.28925 11.6712C3.93881 11.7625 3.55687 11.8062 3.1605 11.8062C2.88488 11.8062 2.60662 11.7913 2.34544 11.7362C2.90325 13.36 4.48613 14.5538 6.36825 14.5925C4.9035 15.6838 3.04369 16.3412 1.03031 16.3412C0.67725 16.3412 0.338625 16.3263 0 16.285C1.90706 17.4563 4.16719 18.125 6.6045 18.125C14.5267 18.125 18.858 11.875 18.858 6.4575C18.858 6.27625 18.8514 6.10125 18.8423 5.9275C19.6967 5.35 20.4146 4.62875 21 3.79875Z" fill="#D9B872"/>
</g>
<defs>
<clipPath id="clip0_1_188">
<rect width="21" height="20" fill="white"/>
</clipPath>
</defs>
</svg>
